STARTFONT 2.1
FONT -MIT-27VR KST-Medium-R-Normal--27-9-200-200-P-14-ISO8859-1
SIZE 9 200 200
FONTBOUNDINGBOX 26 27 -4 -7
STARTPROPERTIES 17
ADD_STYLE_NAME ""
AVERAGE_WIDTH 14
CHARSET_ENCODING "1"
CHARSET_REGISTRY "ISO8859"
DEFAULT_CHAR 0
FAMILY "27VR KST"
FONT_ASCENT 20
FONT_DESCENT 7
FOUNDRY "MIT"
PIXEL_SIZE 27
POINT_SIZE 9
RESOLUTION_X 200
RESOLUTION_Y 200
SETWIDTH_NAME "Normal"
SLANT "R"
SPACING "P"
WEIGHT_NAME "Medium"
ENDPROPERTIES
CHARS 124
STARTCHAR char1
ENCODING 1
SWIDTH 1443 0
DWIDTH 13 0
BBX 11 27 0 -7
BITMAP
0000
0000
0400
0400
0400
0400
0400
0400
0400
0400
0400
0400
0400
0400
C460
64C0
3580
1F00
0E00
0400
0000
0000
0000
0000
0000
0000
0000
ENDCHAR
STARTCHAR char2
ENCODING 2
SWIDTH 1554 0
DWIDTH 14 0
BBX 13 27 0 -7
BITMAP
0000
0000
0000
0000
0000
0000
0000
0018
1C30
3E30
6360
41E0
C1C0
C0C0
C0C0
C1C0
41E0
6360
3E38
1C18
0000
0000
0000
0000
0000
0000
0000
ENDCHAR
STARTCHAR char3
ENCODING 3
SWIDTH 1554 0
DWIDTH 14 0
BBX 13 27 0 -7
BITMAP
0000
0000
01C0
07E0
0FF0
1C30
1830
3060
3060
60C0
6180
6380
61E0
E070
E038
E038
E038
F870
FFE0
CFC0
C000
C000
C000
C000
0000
0000
0000
ENDCHAR
STARTCHAR char4
ENCODING 4
SWIDTH 1665 0
DWIDTH 15 0
BBX 14 27 0 -7
BITMAP
0000
0000
0000
0000
0000
0000
0000
0200
0700
0580
0D80
08C0
18C0
1860
3020
3030
6018
6018
C00C
C00C
0000
0000
0000
0000
0000
0000
0000
ENDCHAR
STARTCHAR char5
ENCODING 5
SWIDTH 1665 0
DWIDTH 15 0
BBX 13 27 0 -7
BITMAP
0000
0000
0000
0000
0000
0000
0000
0000
0000
0000
0000
FFF8
FFF8
0018
0018
0018
0000
0000
0000
0000
0000
0000
0000
0000
0000
0000
0000
ENDCHAR
STARTCHAR char6
ENCODING 6
SWIDTH 1110 0
DWIDTH 10 0
BBX 8 27 0 -7
BITMAP
00
00
00
00
00
00
00
00
0F
3F
70
E0
E0
FE
E0
E0
70
3F
0F
00
00
00
00
00
00
00
00
ENDCHAR
STARTCHAR char7
ENCODING 7
SWIDTH 1554 0
DWIDTH 14 0
BBX 13 27 0 -7
BITMAP
0000
0000
0000
0000
0000
0000
0000
0000
FF80
FFF0
30F8
30C0
30C0
30C0
30C0
30C0
30C0
30C0
30C0
F0C0
0078
0000
0000
0000
0000
0000
0000
ENDCHAR
STARTCHAR char8
ENCODING 8
SWIDTH 1554 0
DWIDTH 14 0
BBX 13 27 0 -7
BITMAP
0000
0000
0000
0000
7800
9C00
8C00
0600
0600
0300
0300
0300
0780
0F80
1CC0
38C0
7060
6060
C030
C038
0000
0000
0000
0000
0000
0000
0000
ENDCHAR
STARTCHAR char9
ENCODING 9
SWIDTH 1221 0
DWIDTH 11 0
BBX 9 27 0 -7
BITMAP
0800
0800
0800
C980
C180
2200
1400
E380
C180
C980
0800
0800
0800
0000
0000
0000
0000
0000
0000
0000
0000
0000
0000
0000
0000
0000
0000
ENDCHAR
STARTCHAR char11
ENCODING 11
SWIDTH 1443 0
DWIDTH 13 0
BBX 11 27 0 -7
BITMAP
0000
0000
0E00
1F00
3F80
64C0
C460
0400
0400
0400
0400
0400
0400
0400
0400
0400
0400
0400
0400
0400
0000
0000
0000
0000
0000
0000
0000
ENDCHAR
STARTCHAR char12
ENCODING 12
SWIDTH 1554 0
DWIDTH 14 0
BBX 13 27 0 -7
BITMAP
0000
0000
0000
0600
0600
0600
0600
0600
FFF8
FFF8
0600
0600
0600
0600
0600
0000
0000
FFF8
FFF8
0000
0000
0000
0000
0000
0000
0000
0000
ENDCHAR
STARTCHAR char14
ENCODING 14
SWIDTH 1665 0
DWIDTH 15 0
BBX 13 27 0 -7
BITMAP
0000
0000
0000
0000
0000
0000
0000
0000
0000
0000
38E0
7DF0
C718
C618
C618
C718
7DF0
38E0
0000
0000
0000
0000
0000
0000
0000
0000
0000
ENDCHAR
STARTCHAR char15
ENCODING 15
SWIDTH 1554 0
DWIDTH 14 0
BBX 11 27 1 -7
BITMAP
0000
0000
1E00
1F80
10C0
0060
0060
0060
0060
0060
1E60
3FE0
40E0
C060
C060
C060
C0C0
6380
7F00
1E00
0000
0000
0000
0000
0000
0000
0000
ENDCHAR
STARTCHAR char16
ENCODING 16
SWIDTH 1665 0
DWIDTH 15 0
BBX 13 27 0 -7
BITMAP
0000
0000
0000
0000
0000
0000
0000
1FF8
3FF8
7000
E000
C000
C000
C000
6000
3FF0
1FF8
0000
0000
0000
0000
0000
0000
0000
0000
0000
0000
ENDCHAR
STARTCHAR char17
ENCODING 17
SWIDTH 1665 0
DWIDTH 15 0
BBX 13 27 0 -7
BITMAP
0000
0000
0000
0000
0000
0000
0000
FFC0
FFE0
0070
0038
0018
0018
0038
0070
FFE0
FFC0
0000
0000
0000
0000
0000
0000
0000
0000
0000
0000
ENDCHAR
STARTCHAR char18
ENCODING 18
SWIDTH 1554 0
DWIDTH 14 0
BBX 10 27 1 -7
BITMAP
0000
0000
0000
0000
0000
0000
0000
1E00
3F00
7380
E1C0
C0C0
C0C0
C0C0
C0C0
C0C0
C0C0
C0C0
C0C0
C0C0
0000
0000
0000
0000
0000
0000
0000
ENDCHAR
STARTCHAR char19
ENCODING 19
SWIDTH 1554 0
DWIDTH 14 0
BBX 10 27 1 -7
BITMAP
0000
0000
0000
0000
0000
0000
C0C0
C0C0
C0C0
C0C0
C0C0
C0C0
C0C0
C0C0
C0C0
C0C0
E1C0
7380
3F00
1E00
0000
0000
0000
0000
0000
0000
0000
ENDCHAR
STARTCHAR char20
ENCODING 20
SWIDTH 1554 0
DWIDTH 14 0
BBX 13 27 0 -7
BITMAP
0000
0000
C018
C010
6030
6030
2060
3060
3FE0
1FC0
18C0
18C0
0980
0980
0F80
0700
0700
0600
0600
0600
0000
0000
0000
0000
0000
0000
0000
ENDCHAR
STARTCHAR char21
ENCODING 21
SWIDTH 1554 0
DWIDTH 14 0
BBX 13 27 0 -7
BITMAP
0000
0000
FFF8
FFF0
0030
0030
0030
0030
0030
0030
07F0
07F0
0030
0030
0030
0030
0030
0030
FFF0
FFF8
0000
0000
0000
0000
0000
0000
0000
ENDCHAR
STARTCHAR char22
ENCODING 22
SWIDTH 1665 0
DWIDTH 15 0
BBX 13 27 0 -7
BITMAP
0000
0000
0000
0000
0000
0000
0000
0000
0700
1FC0
3060
78F0
4D90
C718
C718
4D90
78F0
3060
1FC0
0700
0000
0000
0000
0000
0000
0000
0000
ENDCHAR
STARTCHAR char23
ENCODING 23
SWIDTH 1998 0
DWIDTH 18 0
BBX 16 27 0 -7
BITMAP
0000
0000
0000
0000
0000
0000
0000
0000
0010
0818
180C
3006
6007
FFFF
6007
2006
100C
0818
0010
0000
0000
0000
0000
0000
0000
0000
0000
ENDCHAR
STARTCHAR char24
ENCODING 24
SWIDTH 1776 0
DWIDTH 16 0
BBX 14 27 0 -7
BITMAP
0000
0000
0000
0000
0000
0000
0000
0000
0000
0800
1800
3000
6000
FFFC
6000
2000
1000
0800
0000
0000
0000
0000
0000
0000
0000
0000
0000
ENDCHAR
STARTCHAR char25
ENCODING 25
SWIDTH 1776 0
DWIDTH 16 0
BBX 14 27 0 -7
BITMAP
0000
0000
0000
0000
0000
0000
0000
0000
0040
0060
0030
0018
001C
FFFC
001C
0018
0030
0060
0040
0000
0000
0000
0000
0000
0000
0000
0000
ENDCHAR
STARTCHAR char26
ENCODING 26
SWIDTH 1443 0
DWIDTH 13 0
BBX 11 27 0 -7
BITMAP
0000
0000
0000
0000
0000
0000
0000
0000
0060
00C0
0180
FFE0
FFE0
0600
FFE0
FFE0
3000
6000
C000
0000
0000
0000
0000
0000
0000
0000
0000
ENDCHAR
STARTCHAR char27
ENCODING 27
SWIDTH 1554 0
DWIDTH 14 0
BBX 13 27 0 -7
BITMAP
0000
0000
0000
0000
0000
0000
0000
0000
0000
1808
3C08
7E18
6730
C3E0
81C0
0000
0000
0000
0000
0000
0000
0000
0000
0000
0000
0000
0000
ENDCHAR
STARTCHAR char28
ENCODING 28
SWIDTH 1554 0
DWIDTH 14 0
BBX 11 27 1 -7
BITMAP
0000
0000
0000
0000
0000
0040
01E0
0780
0E00
3800
F000
F000
3C00
0F00
01C0
0060
0000
0000
FFE0
FFE0
0000
0000
0000
0000
0000
0000
0000
ENDCHAR
STARTCHAR char29
ENCODING 29
SWIDTH 1443 0
DWIDTH 13 0
BBX 11 27 0 -7
BITMAP
0000
0000
0000
0000
0000
C000
E000
3800
0E00
0780
01E0
01E0
0780
1E00
F000
C000
0000
0000
FFE0
FFE0
0000
0000
0000
0000
0000
0000
0000
ENDCHAR
STARTCHAR char30
ENCODING 30
SWIDTH 1443 0
DWIDTH 13 0
BBX 11 27 0 -7
BITMAP
0000
0000
0000
0000
0000
0000
0000
0000
0000
FFE0
FFE0
0000
0000
FFE0
0000
0000
FFE0
FFE0
0000
0000
0000
0000
0000
0000
0000
0000
0000
ENDCHAR
STARTCHAR char31
ENCODING 31
SWIDTH 1665 0
DWIDTH 15 0
BBX 13 27 0 -7
BITMAP
0000
0000
0000
0000
0000
0000
0000
0000
8008
C018
C018
6030
6030
3060
30C0
18C0
1980
0980
0700
0600
0000
0000
0000
0000
0000
0000
0000
ENDCHAR
STARTCHAR char32
ENCODING 32
SWIDTH 999 0
DWIDTH 9 0
BBX 1 27 0 -7
BITMAP
00
00
00
00
00
00
00
00
00
00
00
00
00
00
00
00
00
00
00
00
00
00
00
00
00
00
00
ENDCHAR
STARTCHAR char33
ENCODING 33
SWIDTH 555 0
DWIDTH 5 0
BBX 4 27 0 -7
BITMAP
00
00
60
F0
F0
F0
F0
F0
60
60
60
60
60
40
00
00
00
60
F0
60
00
00
00
00
00
00
00
ENDCHAR
STARTCHAR char34
ENCODING 34
SWIDTH 1110 0
DWIDTH 10 0
BBX 7 27 1 -7
BITMAP
EE
EE
EE
EE
EE
C6
00
00
00
00
00
00
00
00
00
00
00
00
00
00
00
00
00
00
00
00
00
ENDCHAR
STARTCHAR char35
ENCODING 35
SWIDTH 1332 0
DWIDTH 12 0
BBX 11 27 0 -7
BITMAP
0000
0000
0000
0000
0000
0000
0000
0000
1B00
1B00
1B00
FFE0
FFE0
1B00
FFE0
FFE0
1B00
1B00
1B00
0000
0000
0000
0000
0000
0000
0000
0000
ENDCHAR
STARTCHAR char36
ENCODING 36
SWIDTH 1443 0
DWIDTH 13 0
BBX 11 27 0 -7
BITMAP
1B00
1B00
1B00
3F80
7BC0
7B60
DB60
DB00
FB00
7B00
3F00
1B80
1BC0
1B60
1B20
DB20
DB60
DFC0
7F00
1B00
1B00
1100
0000
0000
0000
0000
0000
ENDCHAR
STARTCHAR char37
ENCODING 37
SWIDTH 1554 0
DWIDTH 14 0
BBX 13 27 0 -7
BITMAP
0000
0000
03F0
07F0
0C60
F8C0
D8C0
C980
F980
7B00
0300
0600
0600
0400
0CE0
09F0
1998
1998
31F8
30F0
0000
0000
0000
0000
0000
0000
0000
ENDCHAR
STARTCHAR char38
ENCODING 38
SWIDTH 2109 0
DWIDTH 19 0
BBX 16 27 0 -7
BITMAP
0000
0000
0E00
1F00
3980
30C0
30C0
3980
1B00
1E07
0C0F
1E1B
2731
47A0
C3E0
C1E0
C1F0
E378
FE3F
7C1E
0000
0000
0000
0000
0000
0000
0000
ENDCHAR
STARTCHAR char39
ENCODING 39
SWIDTH 555 0
DWIDTH 5 0
BBX 4 27 0 -7
BITMAP
60
F0
F0
70
30
60
C0
00
00
00
00
00
00
00
00
00
00
00
00
00
00
00
00
00
00
00
00
ENDCHAR
STARTCHAR char40
ENCODING 40
SWIDTH 888 0
DWIDTH 8 0
BBX 6 27 0 -7
BITMAP
04
08
18
18
30
30
60
60
E0
E0
C0
C0
C0
C0
E0
60
60
30
30
18
18
08
0C
00
00
00
00
ENDCHAR
STARTCHAR char41
ENCODING 41
SWIDTH 888 0
DWIDTH 8 0
BBX 6 27 0 -7
BITMAP
C0
60
60
30
30
18
18
08
0C
0C
04
04
04
0C
0C
0C
08
18
18
30
30
60
40
00
00
00
00
ENDCHAR
STARTCHAR char42
ENCODING 42
SWIDTH 1665 0
DWIDTH 15 0
BBX 13 27 0 -7
BITMAP
0000
0000
0000
0000
0000
0000
0200
0700
C618
E638
F678
3FE0
1FC0
1F80
3FE0
F770
E638
C618
0700
0600
0000
0000
0000
0000
0000
0000
0000
ENDCHAR
STARTCHAR char43
ENCODING 43
SWIDTH 1665 0
DWIDTH 15 0
BBX 13 27 0 -7
BITMAP
0000
0000
0000
0000
0000
0000
0000
0200
0600
0600
0600
0600
0700
FFF8
0700
0600
0600
0600
0600
0600
0000
0000
0000
0000
0000
0000
0000
ENDCHAR
STARTCHAR char44
ENCODING 44
SWIDTH 555 0
DWIDTH 5 0
BBX 4 27 0 -7
BITMAP
00
00
00
00
00
00
00
00
00
00
00
00
00
00
00
00
00
60
F0
70
30
20
40
00
00
00
00
ENDCHAR
STARTCHAR char45
ENCODING 45
SWIDTH 1443 0
DWIDTH 13 0
BBX 11 27 0 -7
BITMAP
0000
0000
0000
0000
0000
0000
0000
0000
0000
0000
0000
0000
0000
FFE0
0000
0000
0000
0000
0000
0000
0000
0000
0000
0000
0000
0000
0000
ENDCHAR
STARTCHAR char46
ENCODING 46
SWIDTH 555 0
DWIDTH 5 0
BBX 4 27 0 -7
BITMAP
00
00
00
00
00
00
00
00
00
00
00
00
00
00
00
00
00
60
F0
60
00
00
00
00
00
00
00
ENDCHAR
STARTCHAR char47
ENCODING 47
SWIDTH 999 0
DWIDTH 9 0
BBX 6 27 0 -7
BITMAP
00
00
04
04
0C
08
08
08
18
18
18
10
30
30
30
60
60
60
60
C0
C0
C0
C0
00
00
00
00
ENDCHAR
STARTCHAR char48
ENCODING 48
SWIDTH 1554 0
DWIDTH 14 0
BBX 11 27 1 -7
BITMAP
0000
0000
1E00
3F00
6180
60C0
60E0
E060
C060
C060
C060
C060
C060
C060
C060
60C0
60C0
3180
1F00
0E00
0000
0000
0000
0000
0000
0000
0000
ENDCHAR
STARTCHAR char49
ENCODING 49
SWIDTH 1554 0
DWIDTH 14 0
BBX 6 27 4 -7
BITMAP
00
00
30
F0
F0
70
70
70
70
70
70
70
70
70
70
70
70
70
78
FC
00
00
00
00
00
00
00
ENDCHAR
STARTCHAR char50
ENCODING 50
SWIDTH 1554 0
DWIDTH 14 0
BBX 12 27 0 -7
BITMAP
0000
0000
1F00
3F80
40C0
C060
E070
7070
3870
00E0
00C0
0180
0300
0600
0C00
1800
3000
6000
7FE0
7FE0
0060
0060
0000
0000
0000
0000
0000
ENDCHAR
STARTCHAR char51
ENCODING 51
SWIDTH 1554 0
DWIDTH 14 0
BBX 10 27 2 -7
BITMAP
0000
0000
3C00
7E00
C300
C380
C380
4380
6300
0600
0C00
1F00
1180
01C0
00C0
00C0
C180
E300
7E00
3800
0000
0000
0000
0000
0000
0000
0000
ENDCHAR
STARTCHAR char52
ENCODING 52
SWIDTH 1554 0
DWIDTH 14 0
BBX 12 27 0 -7
BITMAP
0000
0000
0080
0180
0180
0380
0780
0D80
1980
3180
6180
FFF0
FFF0
0380
0380
0380
0380
0380
07C0
0FF0
0000
0000
0000
0000
0000
0000
0000
ENDCHAR
STARTCHAR char53
ENCODING 53
SWIDTH 1554 0
DWIDTH 14 0
BBX 10 27 2 -7
BITMAP
0000
0000
6300
7F00
7E00
6000
6000
6000
7F00
7F80
61C0
61C0
40C0
00C0
00C0
80C0
81C0
C180
FF00
3C00
0000
0000
0000
0000
0000
0000
0000
ENDCHAR
STARTCHAR char54
ENCODING 54
SWIDTH 1554 0
DWIDTH 14 0
BBX 12 27 0 -7
BITMAP
0000
0000
1F00
3F80
70C0
E0C0
C000
C000
C000
CF80
DFC0
F0E0
E060
C070
C070
C060
60E0
71C0
3F80
1E00
0000
0000
0000
0000
0000
0000
0000
ENDCHAR
STARTCHAR char55
ENCODING 55
SWIDTH 1554 0
DWIDTH 14 0
BBX 10 27 2 -7
BITMAP
2000
6000
FFC0
FFC0
FFC0
80C0
0180
0180
0180
0300
0300
0300
0600
0600
0600
0C00
0C00
1800
1800
1800
0000
0000
0000
0000
0000
0000
0000
ENDCHAR
STARTCHAR char56
ENCODING 56
SWIDTH 1554 0
DWIDTH 14 0
BBX 12 27 0 -7
BITMAP
0000
0000
1F00
3F80
60C0
6060
6060
70C0
3980
1F00
0F80
13C0
21E0
60F0
E070
E070
6070
70E0
3FC0
0F00
0000
0000
0000
0000
0000
0000
0000
ENDCHAR
STARTCHAR char57
ENCODING 57
SWIDTH 1554 0
DWIDTH 14 0
BBX 11 27 1 -7
BITMAP
0000
0000
1E00
3F00
6180
E0C0
E0E0
E0E0
E0E0
E0E0
E0E0
71E0
3F60
1E60
00E0
00E0
20C0
7180
7F00
3E00
0000
0000
0000
0000
0000
0000
0000
ENDCHAR
STARTCHAR char58
ENCODING 58
SWIDTH 555 0
DWIDTH 5 0
BBX 4 27 0 -7
BITMAP
00
00
00
00
00
00
00
00
00
60
F0
60
00
00
00
00
00
60
F0
60
00
00
00
00
00
00
00
ENDCHAR
STARTCHAR char59
ENCODING 59
SWIDTH 555 0
DWIDTH 5 0
BBX 4 27 0 -7
BITMAP
00
00
00
00
00
00
00
00
00
60
F0
60
00
00
00
00
00
60
F0
70
30
20
40
00
00
00
00
ENDCHAR
STARTCHAR char60
ENCODING 60
SWIDTH 1554 0
DWIDTH 14 0
BBX 11 27 1 -7
BITMAP
0000
0000
0000
0000
0000
0000
0000
0000
0060
01E0
0780
1E00
7800
F000
7800
1E00
0780
01E0
0060
0000
0000
0000
0000
0000
0000
0000
0000
ENDCHAR
STARTCHAR char61
ENCODING 61
SWIDTH 1554 0
DWIDTH 14 0
BBX 11 27 1 -7
BITMAP
0000
0000
0000
0000
0000
0000
0000
0000
0000
0000
0000
FFE0
FFE0
0000
FFC0
FFE0
0000
0000
0000
0000
0000
0000
0000
0000
0000
0000
0000
ENDCHAR
STARTCHAR char62
ENCODING 62
SWIDTH 1554 0
DWIDTH 14 0
BBX 11 27 1 -7
BITMAP
0000
0000
0000
0000
0000
0000
0000
0000
C000
F000
3800
0E00
0380
01E0
0380
0E00
3C00
F000
C000
0000
0000
0000
0000
0000
0000
0000
0000
ENDCHAR
STARTCHAR char63
ENCODING 63
SWIDTH 1110 0
DWIDTH 10 0
BBX 8 27 0 -7
BITMAP
00
00
78
FE
C7
03
03
03
03
06
3E
38
30
30
30
00
00
30
78
30
00
00
00
00
00
00
00
ENDCHAR
STARTCHAR char64
ENCODING 64
SWIDTH 1554 0
DWIDTH 14 0
BBX 13 27 0 -7
BITMAP
0000
0000
0000
0000
0000
0000
0000
0F80
3FE0
6070
C038
CF18
CFD8
C8D8
CFF0
CFE0
E000
7038
3FF0
0FC0
0000
0000
0000
0000
0000
0000
0000
ENDCHAR
STARTCHAR char65
ENCODING 65
SWIDTH 2442 0
DWIDTH 22 0
BBX 19 27 -1 -7
BITMAP
000000
000000
004000
00E000
00E000
01F000
017000
033800
033800
061C00
061C00
060C00
07FC00
0FFC00
080600
180600
180700
300300
300380
F80FE0
000000
000000
000000
000000
000000
000000
000000
ENDCHAR
STARTCHAR char66
ENCODING 66
SWIDTH 2220 0
DWIDTH 20 0
BBX 17 27 0 -7
BITMAP
000000
000000
FFF800
1FFC00
0C1C00
0C0C00
0C0C00
0C0C00
0C0C00
0C1800
0FF000
0FFC00
0C0F00
0C0780
0C0380
0C0380
0C0380
0C0700
0FFE00
7FFC00
000000
000000
000000
000000
000000
000000
000000
ENDCHAR
STARTCHAR char67
ENCODING 67
SWIDTH 2220 0
DWIDTH 20 0
BBX 17 27 0 -7
BITMAP
000000
000000
07FC00
1FFE00
3E0300
380300
780180
780000
F00000
F00000
F00000
F00000
F00000
F00000
780080
380080
380180
1E0380
0FFC80
07FC80
000000
000000
000000
000000
000000
000000
000000
ENDCHAR
STARTCHAR char68
ENCODING 68
SWIDTH 2331 0
DWIDTH 21 0
BBX 18 27 0 -7
BITMAP
000000
000000
FFF000
7FF800
380E00
180700
180380
180380
1803C0
1803C0
1803C0
1803C0
1803C0
1803C0
1803C0
180380
180300
180600
3FFC00
FFFC00
000000
000000
000000
000000
000000
000000
000000
ENDCHAR
STARTCHAR char69
ENCODING 69
SWIDTH 1998 0
DWIDTH 18 0
BBX 15 27 0 -7
BITMAP
0000
0000
7FFC
3FFC
1C04
0C00
0C00
0C00
0C20
0C60
0FE0
0FE0
0C60
0C20
0C00
0C00
0C02
1C02
3FFE
FFFE
0000
0000
0000
0000
0000
0000
0000
ENDCHAR
STARTCHAR char70
ENCODING 70
SWIDTH 1776 0
DWIDTH 16 0
BBX 14 27 0 -7
BITMAP
0000
0000
FFFC
7FFC
380C
1804
1800
1800
1820
1860
1FE0
1FE0
1860
1820
1800
1800
1800
3C00
7E00
FF00
0000
0000
0000
0000
0000
0000
0000
ENDCHAR
STARTCHAR char71
ENCODING 71
SWIDTH 2442 0
DWIDTH 22 0
BBX 19 27 0 -7
BITMAP
000000
000000
01F800
07FF00
1E0700
3C0300
380300
380100
780000
700000
F00000
F00000
7007E0
7003C0
7803C0
3803C0
3803C0
1E0700
0FFE00
07FE00
000000
000000
000000
000000
000000
000000
000000
ENDCHAR
STARTCHAR char72
ENCODING 72
SWIDTH 2553 0
DWIDTH 23 0
BBX 20 27 0 -7
BITMAP
000000
000000
FE07F0
7801E0
3801C0
3801C0
3801C0
3801C0
3801C0
3801C0
3FFFC0
3FFFC0
3801C0
3801C0
3801C0
3801C0
3801C0
3801C0
7803E0
FE07F0
000000
000000
000000
000000
000000
000000
000000
ENDCHAR
STARTCHAR char73
ENCODING 73
SWIDTH 1110 0
DWIDTH 10 0
BBX 8 27 0 -7
BITMAP
00
00
FF
3C
18
18
18
18
18
18
18
18
18
18
18
18
18
18
3C
FF
00
00
00
00
00
00
00
ENDCHAR
STARTCHAR char74
ENCODING 74
SWIDTH 1554 0
DWIDTH 14 0
BBX 12 27 0 -7
BITMAP
0000
0000
07F0
03E0
01C0
01C0
01C0
01C0
01C0
01C0
01C0
01C0
01C0
01C0
01C0
01C0
01C0
01C0
01C0
01C0
01C0
01C0
01C0
8380
C300
FE00
7C00
ENDCHAR
STARTCHAR char75
ENCODING 75
SWIDTH 2553 0
DWIDTH 23 0
BBX 20 27 0 -7
BITMAP
000000
000000
FF1F80
3C0E00
1C0C00
181800
183000
186000
18C000
18C000
19C000
1FE000
1EE000
1C7000
183800
181C00
180E00
180700
3C03C0
7F1FF0
000000
000000
000000
000000
000000
000000
000000
ENDCHAR
STARTCHAR char76
ENCODING 76
SWIDTH 1998 0
DWIDTH 18 0
BBX 15 27 0 -7
BITMAP
0000
0000
FF00
3C00
1800
1800
1800
1800
1800
1800
1800
1800
1800
1800
1800
1800
1802
1802
3FFE
FFFE
0000
0000
0000
0000
0000
0000
0000
ENDCHAR
STARTCHAR char77
ENCODING 77
SWIDTH 2886 0
DWIDTH 26 0
BBX 23 27 0 -7
BITMAP
000000
000000
FC007E
1C0078
1E0070
1E00F0
1E00F0
1F0170
1F0370
1B8270
1B8670
19C470
19CC70
18EC70
18F870
187870
187070
187070
3820F8
7C21FC
000000
000000
000000
000000
000000
000000
000000
ENDCHAR
STARTCHAR char78
ENCODING 78
SWIDTH 2442 0
DWIDTH 22 0
BBX 19 27 0 -7
BITMAP
000000
000000
F803E0
7801C0
3C0180
3E0180
3F0180
378180
33C180
31E180
30F180
307980
303D80
301F80
300F80
300780
300780
300380
780180
F80180
000000
000000
000000
000000
000000
000000
000000
ENDCHAR
STARTCHAR char79
ENCODING 79
SWIDTH 2553 0
DWIDTH 23 0
BBX 21 27 0 -7
BITMAP
000000
000000
01FC00
07FF00
0E03C0
1C01C0
3800E0
7800F0
700070
700078
F00078
F00078
700070
700070
7800E0
3800E0
1C01C0
0E0380
07FE00
01FC00
000000
000000
000000
000000
000000
000000
000000
ENDCHAR
STARTCHAR char80
ENCODING 80
SWIDTH 1998 0
DWIDTH 18 0
BBX 15 27 0 -7
BITMAP
0000
0000
FFF0
7FF8
183C
181C
180E
180E
180E
180C
1C1C
1FF8
1FF0
1800
1800
1800
1800
1800
1C00
7F00
0000
0000
0000
0000
0000
0000
0000
ENDCHAR
STARTCHAR char81
ENCODING 81
SWIDTH 2553 0
DWIDTH 23 0
BBX 26 27 0 -7
BITMAP
00000000
00000000
00FC0000
03FF0000
06038000
1C01C000
1801E000
3800E000
7800F000
7800F000
F000F000
F000F000
F000F000
7000F000
7800C000
3801C000
18018000
0C030000
07FC0000
01FC0000
00200000
007E0000
0187C000
0001FFC0
0000FFC0
00007F80
00000E00
ENDCHAR
STARTCHAR char82
ENCODING 82
SWIDTH 2220 0
DWIDTH 20 0
BBX 17 27 0 -7
BITMAP
000000
000000
FFF000
3FF800
383C00
181C00
181C00
181C00
181C00
181C00
187800
1FE000
1FC000
18C000
186000
183000
181800
180C00
380E00
FE0780
000000
000000
000000
000000
000000
000000
000000
ENDCHAR
STARTCHAR char83
ENCODING 83
SWIDTH 1665 0
DWIDTH 15 0
BBX 13 27 0 -7
BITMAP
0000
0000
0E00
3FA0
70E0
E020
E020
7000
7800
3E00
0F80
03E0
01F0
0078
8038
C030
E070
F0E0
BFC0
0F00
0000
0000
0000
0000
0000
0000
0000
ENDCHAR
STARTCHAR char84
ENCODING 84
SWIDTH 2331 0
DWIDTH 21 0
BBX 18 27 0 -7
BITMAP
000000
000000
FFFFC0
FFFFC0
C1C040
81C040
01C000
01C000
01C000
01C000
01C000
01C000
01C000
01C000
01C000
01C000
01C000
01C000
03E000
07F800
000000
000000
000000
000000
000000
000000
000000
ENDCHAR
STARTCHAR char85
ENCODING 85
SWIDTH 2442 0
DWIDTH 22 0
BBX 19 27 0 -7
BITMAP
000000
000000
FE03E0
7C01C0
380180
380180
380180
380180
380180
380180
380180
380180
380180
380180
380180
380380
180300
0C0600
07FC00
03F800
000000
000000
000000
000000
000000
000000
000000
ENDCHAR
STARTCHAR char86
ENCODING 86
SWIDTH 2553 0
DWIDTH 23 0
BBX 20 27 0 -7
BITMAP
000000
000000
FF03F0
3C01C0
1C0180
1C0180
0E0300
0E0300
060200
070400
070400
038C00
039800
01D800
01F000
01F000
00E000
00E000
00E000
004000
000000
000000
000000
000000
000000
000000
000000
ENDCHAR
STARTCHAR char87
ENCODING 87
SWIDTH 3108 0
DWIDTH 28 0
BBX 25 27 0 -7
BITMAP
00000000
00000000
FE040F80
78040700
38060200
380E0200
180E0600
1C1F0600
0C1B0600
0C1B0C00
0E330C00
06338C00
06339800
0761D800
0761F000
07C1F000
07C1E000
0380E000
0380E000
0100C000
00000000
00000000
00000000
00000000
00000000
00000000
00000000
ENDCHAR
STARTCHAR char88
ENCODING 88
SWIDTH 2553 0
DWIDTH 23 0
BBX 20 27 0 -7
BITMAP
000000
000000
FF07C0
7C0380
3C0300
1E0600
0F0C00
079800
07B000
03E000
01E000
00E000
00F000
01B800
031C00
060E00
0C0700
180780
3803C0
7C0FF0
000000
000000
000000
000000
000000
000000
000000
ENDCHAR
STARTCHAR char89
ENCODING 89
SWIDTH 2220 0
DWIDTH 20 0
BBX 17 27 0 -7
BITMAP
000000
000000
F80780
F80780
380600
1C0400
1C0C00
0C0C00
0E1800
061800
073000
03E000
03E000
01C000
01C000
01C000
01C000
01C000
03E000
07F800
000000
000000
000000
000000
000000
000000
000000
ENDCHAR
STARTCHAR char90
ENCODING 90
SWIDTH 1776 0
DWIDTH 16 0
BBX 14 27 0 -7
BITMAP
0000
0000
7FFC
FFF8
C038
8070
00E0
01E0
03C0
0380
0780
0700
0E00
1E00
1C00
3800
7804
700C
FFFC
FFFC
0000
0000
0000
0000
0000
0000
0000
ENDCHAR
STARTCHAR char91
ENCODING 91
SWIDTH 999 0
DWIDTH 9 0
BBX 6 27 1 -7
BITMAP
FC
FC
E0
C0
C0
C0
C0
C0
C0
C0
C0
C0
C0
C0
C0
C0
C0
C0
C0
E0
FC
FC
00
00
00
00
00
ENDCHAR
STARTCHAR char92
ENCODING 92
SWIDTH 999 0
DWIDTH 9 0
BBX 6 27 0 -7
BITMAP
00
00
C0
C0
C0
60
60
60
30
30
30
30
18
18
18
18
08
08
08
04
04
04
04
00
00
00
00
ENDCHAR
STARTCHAR char93
ENCODING 93
SWIDTH 999 0
DWIDTH 9 0
BBX 6 27 1 -7
BITMAP
FC
FC
0C
0C
0C
0C
0C
0C
0C
0C
0C
0C
0C
0C
0C
0C
0C
0C
0C
1C
FC
FC
00
00
00
00
00
ENDCHAR
STARTCHAR char95
ENCODING 95
SWIDTH 1443 0
DWIDTH 13 0
BBX 13 27 0 -7
BITMAP
0000
0000
0000
0000
0000
0000
0000
0000
0000
0000
0000
0000
0000
0000
0000
0000
0000
0000
0000
0000
FFF8
0000
0000
0000
0000
0000
0000
ENDCHAR
STARTCHAR char96
ENCODING 96
SWIDTH 555 0
DWIDTH 5 0
BBX 4 27 0 -7
BITMAP
30
60
C0
C0
E0
F0
60
00
00
00
00
00
00
00
00
00
00
00
00
00
00
00
00
00
00
00
00
ENDCHAR
STARTCHAR char97
ENCODING 97
SWIDTH 1554 0
DWIDTH 14 0
BBX 12 27 1 -7
BITMAP
0000
0000
0000
0000
0000
0000
0000
3C00
FF00
C300
C380
0380
0380
3F80
6380
C380
C380
C780
FFB0
71E0
0000
0000
0000
0000
0000
0000
0000
ENDCHAR
STARTCHAR char98
ENCODING 98
SWIDTH 1665 0
DWIDTH 15 0
BBX 13 27 0 -7
BITMAP
0000
0000
F000
7000
7000
7000
7000
7780
7FE0
7870
7038
7038
7038
7038
7038
7038
7070
78E0
6FC0
4780
0000
0000
0000
0000
0000
0000
0000
ENDCHAR
STARTCHAR char99
ENCODING 99
SWIDTH 1221 0
DWIDTH 11 0
BBX 9 27 0 -7
BITMAP
0000
0000
0000
0000
0000
0000
0000
0F00
3F80
7180
6000
E000
E000
C000
C000
E000
E000
7180
3F80
1F00
0000
0000
0000
0000
0000
0000
0000
ENDCHAR
STARTCHAR char100
ENCODING 100
SWIDTH 1665 0
DWIDTH 15 0
BBX 13 27 0 -7
BITMAP
0000
0000
00E0
01E0
0060
0060
0060
0F60
3FE0
70E0
E060
E060
C060
C060
C060
C060
E0E0
71F0
3F78
1E30
0000
0000
0000
0000
0000
0000
0000
ENDCHAR
STARTCHAR char101
ENCODING 101
SWIDTH 1332 0
DWIDTH 12 0
BBX 10 27 0 -7
BITMAP
0000
0000
0000
0000
0000
0000
0000
0F00
3F80
71C0
60C0
E0C0
FFC0
FFC0
E000
E000
E000
70C0
3F80
0F00
0000
0000
0000
0000
0000
0000
0000
ENDCHAR
STARTCHAR char102
ENCODING 102
SWIDTH 1110 0
DWIDTH 10 0
BBX 9 27 0 -7
BITMAP
0000
0000
0E00
1F00
3080
3000
3000
3000
FC00
FC00
3000
3000
3000
3000
3000
3000
3000
3000
7800
F800
0000
0000
0000
0000
0000
0000
0000
ENDCHAR
STARTCHAR char103
ENCODING 103
SWIDTH 1554 0
DWIDTH 14 0
BBX 13 27 0 -7
BITMAP
0000
0000
0000
0000
0000
0000
0000
1C30
3E78
6390
C180
C180
C180
C180
7F80
3F00
3000
6000
C000
FF00
7FC0
00E0
C060
C060
E0C0
7F80
1F00
ENDCHAR
STARTCHAR char104
ENCODING 104
SWIDTH 1776 0
DWIDTH 16 0
BBX 14 27 0 -7
BITMAP
0000
0000
1800
3800
F800
3800
3800
3BE0
3FF0
3C38
3838
3838
3838
3838
3838
3838
3838
3838
3838
787C
0000
0000
0000
0000
0000
0000
0000
ENDCHAR
STARTCHAR char105
ENCODING 105
SWIDTH 888 0
DWIDTH 8 0
BBX 6 27 0 -7
BITMAP
00
00
00
30
30
00
00
10
F8
38
38
38
38
38
38
38
38
38
78
FC
00
00
00
00
00
00
00
ENDCHAR
STARTCHAR char106
ENCODING 106
SWIDTH 1110 0
DWIDTH 10 0
BBX 8 27 0 -7
BITMAP
00
00
00
03
03
00
00
03
0F
07
07
07
07
07
07
07
07
07
07
07
07
07
07
C7
67
3E
1C
ENDCHAR
STARTCHAR char107
ENCODING 107
SWIDTH 1554 0
DWIDTH 14 0
BBX 13 27 0 -7
BITMAP
0000
0000
3000
7000
F000
3000
3000
3000
33C0
3180
3300
3600
3C00
3C00
3E00
3700
3380
31C0
70E0
F8F8
0000
0000
0000
0000
0000
0000
0000
ENDCHAR
STARTCHAR char108
ENCODING 108
SWIDTH 777 0
DWIDTH 7 0
BBX 5 27 0 -7
BITMAP
00
00
38
78
F8
38
38
38
38
38
38
38
38
38
38
38
38
38
38
78
00
00
00
00
00
00
00
ENDCHAR
STARTCHAR char109
ENCODING 109
SWIDTH 2442 0
DWIDTH 22 0
BBX 19 27 0 -7
BITMAP
000000
000000
000000
000000
000000
000000
000000
278700
6FCF80
F8F9C0
7070E0
7060E0
7060E0
7060E0
7060E0
7060E0
7060E0
7060E0
7060E0
F8F1E0
000000
000000
000000
000000
000000
000000
000000
ENDCHAR
STARTCHAR char110
ENCODING 110
SWIDTH 1665 0
DWIDTH 15 0
BBX 13 27 0 -7
BITMAP
0000
0000
0000
0000
0000
0000
0000
7380
F7E0
7870
7870
7070
7070
7070
7070
7070
7070
7070
7070
F8F8
0000
0000
0000
0000
0000
0000
0000
ENDCHAR
STARTCHAR char111
ENCODING 111
SWIDTH 1554 0
DWIDTH 14 0
BBX 12 27 0 -7
BITMAP
0000
0000
0000
0000
0000
0000
0000
0F00
3FC0
70E0
E070
E070
E070
E070
E070
E070
E070
70E0
3FC0
1F80
0000
0000
0000
0000
0000
0000
0000
ENDCHAR
STARTCHAR char112
ENCODING 112
SWIDTH 1665 0
DWIDTH 15 0
BBX 13 27 0 -7
BITMAP
0000
0000
0000
0000
0000
0000
0000
1380
F7E0
7870
7838
7038
7038
7038
7038
7038
7038
7870
77E0
77C0
7000
7000
7000
7000
7000
7000
F800
ENDCHAR
STARTCHAR char113
ENCODING 113
SWIDTH 1665 0
DWIDTH 15 0
BBX 12 27 0 -7
BITMAP
0000
0000
0000
0000
0000
0000
0000
0F20
1FE0
31E0
60E0
E0E0
E0E0
E0E0
E0E0
E0E0
E0E0
71E0
3FE0
1EE0
00E0
00E0
00E0
00E0
00E0
00E0
01F0
ENDCHAR
STARTCHAR char114
ENCODING 114
SWIDTH 1221 0
DWIDTH 11 0
BBX 9 27 0 -7
BITMAP
0000
0000
0000
0000
0000
0000
0000
3300
F780
7580
3800
3000
3000
3000
3000
3000
3000
3000
7800
F800
0000
0000
0000
0000
0000
0000
0000
ENDCHAR
STARTCHAR char115
ENCODING 115
SWIDTH 1110 0
DWIDTH 10 0
BBX 8 27 0 -7
BITMAP
00
00
00
00
00
00
00
3C
7E
66
62
60
78
3C
1E
07
83
C3
FE
7C
00
00
00
00
00
00
00
ENDCHAR
STARTCHAR char116
ENCODING 116
SWIDTH 888 0
DWIDTH 8 0
BBX 6 27 0 -7
BITMAP
00
00
00
00
00
20
60
FC
FC
60
60
60
60
60
60
60
60
64
7C
38
00
00
00
00
00
00
00
ENDCHAR
STARTCHAR char117
ENCODING 117
SWIDTH 1665 0
DWIDTH 15 0
BBX 13 27 0 -7
BITMAP
0000
0000
0000
0000
0000
0000
0000
F1F0
7070
7070
7070
7070
7070
7070
7070
7070
70F0
71F0
3F78
1E70
0000
0000
0000
0000
0000
0000
0000
ENDCHAR
STARTCHAR char118
ENCODING 118
SWIDTH 1665 0
DWIDTH 15 0
BBX 13 27 0 -7
BITMAP
0000
0000
0000
0000
0000
0000
0000
F8F8
3830
3860
1860
1860
18C0
08C0
0C80
0580
0700
0700
0600
0600
0000
0000
0000
0000
0000
0000
0000
ENDCHAR
STARTCHAR char119
ENCODING 119
SWIDTH 2109 0
DWIDTH 19 0
BBX 16 27 0 -7
BITMAP
0000
0000
0000
0000
0000
0000
0000
F887
7083
70C3
30C3
31C2
39E2
1B66
1B64
1F34
0E3C
0C38
0818
0010
0000
0000
0000
0000
0000
0000
0000
ENDCHAR
STARTCHAR char120
ENCODING 120
SWIDTH 1665 0
DWIDTH 15 0
BBX 13 27 0 -7
BITMAP
0000
0000
0000
0000
0000
0000
0000
F9F0
7060
38C0
3980
1F00
0E00
0600
0F00
1B80
31C0
60E0
60E0
F9F8
0000
0000
0000
0000
0000
0000
0000
ENDCHAR
STARTCHAR char121
ENCODING 121
SWIDTH 1443 0
DWIDTH 13 0
BBX 11 27 0 -7
BITMAP
0000
0000
0000
0000
0000
0000
0000
F9E0
70C0
70C0
30C0
3980
1980
1980
1B00
0B00
0E00
0E00
0600
0400
0400
0C00
0800
0800
1800
3000
6000
ENDCHAR
STARTCHAR char122
ENCODING 122
SWIDTH 1332 0
DWIDTH 12 0
BBX 10 27 0 -7
BITMAP
0000
0000
0000
0000
0000
0000
0000
7F80
7F80
4700
0700
0600
0E00
0C00
1C00
1800
3800
30C0
7FC0
FF80
0000
0000
0000
0000
0000
0000
0000
ENDCHAR
STARTCHAR char123
ENCODING 123
SWIDTH 1110 0
DWIDTH 10 0
BBX 7 27 1 -7
BITMAP
00
00
1E
38
30
30
30
30
10
10
10
30
60
E0
E0
60
30
10
10
10
30
30
30
30
38
1E
00
ENDCHAR
STARTCHAR char124
ENCODING 124
SWIDTH 555 0
DWIDTH 5 0
BBX 2 27 2 -7
BITMAP
00
00
C0
C0
C0
C0
C0
C0
C0
C0
C0
C0
C0
C0
C0
C0
C0
C0
C0
C0
C0
C0
C0
C0
00
00
00
ENDCHAR
STARTCHAR char125
ENCODING 125
SWIDTH 999 0
DWIDTH 9 0
BBX 7 27 0 -7
BITMAP
00
00
F0
38
08
08
18
18
18
18
18
18
0C
06
06
0C
18
18
18
18
18
18
08
08
38
F0
00
ENDCHAR
STARTCHAR char126
ENCODING 126
SWIDTH 1887 0
DWIDTH 17 0
BBX 15 27 0 -7
BITMAP
0000
0000
0000
0000
0000
0000
0000
0C00
1E02
3F02
7F84
63FC
C1F8
C0F0
0000
0000
0000
0000
0000
0000
0000
0000
0000
0000
0000
0000
0000
ENDCHAR
STARTCHAR char127
ENCODING 127
SWIDTH 2331 0
DWIDTH 21 0
BBX 17 27 1 -7
BITMAP
000000
001F00
003F80
007380
007180
00E000
00E000
00E000
00E000
01C000
01C000
01C000
01C000
01C000
038000
038000
038000
070000
E70000
EF0000
7E0000
3C0000
000000
000000
000000
000000
000000
ENDCHAR
ENDFONT
